<svg width="20" height="20" viewBox="0 0 20 20" fill="none" xmlns="http://www.w3.org/2000/svg">
<path d="M14.9766 9.50391C14.8125 9.66797 14.5938 9.75 14.375 9.75C14.1289 9.75 13.9102 9.66797 13.7461 9.50391L10.875 6.63281V15C10.875 15.4922 10.4648 15.875 10 15.875C9.5625 15.875 9.125 15.4922 9.125 15V6.63281L6.22656 9.50391C5.89844 9.85938 5.32422 9.85938 4.99609 9.50391C4.64062 9.17578 4.64062 8.60156 4.99609 8.27344L9.37109 3.89844C9.69922 3.54297 10.2734 3.54297 10.6016 3.89844L14.9766 8.27344C15.332 8.60156 15.332 9.17578 14.9766 9.50391Z" fill="white"/>
</svg>
