<svg width="30" height="30" viewBox="0 0 30 30" fill="none" xmlns="http://www.w3.org/2000/svg">
<path d="M9.75 8.25C9.75 5.39062 12.0938 3 15 3C17.8594 3 20.25 5.39062 20.25 8.25V10.5H23.25C24.4688 10.5 25.5 11.5312 25.5 12.75V22.5C25.5 24.9844 23.4844 27 21 27H9C6.46875 27 4.5 24.9844 4.5 22.5V12.75C4.5 11.5312 5.48438 10.5 6.75 10.5H9.75V8.25ZM12 10.5H18V8.25C18 6.60938 16.6406 5.25 15 5.25C13.3125 5.25 12 6.60938 12 8.25V10.5ZM10.875 15C11.4844 15 12 14.5312 12 13.875C12 13.2656 11.4844 12.75 10.875 12.75C10.2188 12.75 9.75 13.2656 9.75 13.875C9.75 14.5312 10.2188 15 10.875 15ZM19.125 12.75C18.4688 12.75 18 13.2656 18 13.875C18 14.5312 18.4688 15 19.125 15C19.7344 15 20.25 14.5312 20.25 13.875C20.25 13.2656 19.7344 12.75 19.125 12.75Z" fill="white"/>
</svg>
