<svg width="25" height="25" viewBox="0 0 25 25" fill="none" xmlns="http://www.w3.org/2000/svg">
<path d="M7.65625 20H4.02344V8.32031H7.65625V20ZM5.82031 6.75781C4.6875 6.75781 3.75 5.78125 3.75 4.60938C3.75 3.00781 5.46875 1.99219 6.875 2.8125C7.53906 3.16406 7.92969 3.86719 7.92969 4.60938C7.92969 5.78125 6.99219 6.75781 5.82031 6.75781ZM21.2109 20H17.6172V14.3359C17.6172 12.9688 17.5781 11.25 15.7031 11.25C13.8281 11.25 13.5547 12.6953 13.5547 14.2188V20H9.92188V8.32031H13.3984V9.92188H13.4375C13.9453 9.02344 15.1172 8.04688 16.875 8.04688C20.5469 8.04688 21.25 10.4688 21.25 13.5938V20H21.2109Z" fill="#1E2832"/>
</svg>
