<svg width="25" height="25" viewBox="0 0 25 25" fill="none" xmlns="http://www.w3.org/2000/svg">
<path d="M20.4297 8.4375C20.4297 8.63281 20.4297 8.78906 20.4297 8.98438C20.4297 14.4141 16.3281 20.625 8.78906 20.625C6.44531 20.625 4.29688 19.9609 2.5 18.7891C2.8125 18.8281 3.125 18.8672 3.47656 18.8672C5.39062 18.8672 7.14844 18.2031 8.55469 17.1094C6.75781 17.0703 5.23438 15.8984 4.72656 14.2578C5 14.2969 5.23438 14.3359 5.50781 14.3359C5.85938 14.3359 6.25 14.2578 6.5625 14.1797C4.6875 13.7891 3.28125 12.1484 3.28125 10.1562V10.1172C3.82812 10.4297 4.49219 10.5859 5.15625 10.625C4.02344 9.88281 3.32031 8.63281 3.32031 7.22656C3.32031 6.44531 3.51562 5.74219 3.86719 5.15625C5.89844 7.61719 8.94531 9.25781 12.3438 9.45312C12.2656 9.14062 12.2266 8.82812 12.2266 8.51562C12.2266 6.25 14.0625 4.41406 16.3281 4.41406C17.5 4.41406 18.5547 4.88281 19.3359 5.70312C20.2344 5.50781 21.1328 5.15625 21.9141 4.6875C21.6016 5.66406 20.9766 6.44531 20.1172 6.95312C20.9375 6.875 21.7578 6.64062 22.4609 6.32812C21.9141 7.14844 21.2109 7.85156 20.4297 8.4375Z" fill="#1E2832"/>
</svg>
